<?xml version="1.0" standalone="no"?><!DOCTYPE svg PUBLIC "-//W3C//DTD SVG 1.1//EN" "http://www.w3.org/Graphics/SVG/1.1/DTD/svg11.dtd"><svg width="100%" height="100%" viewBox="0 0 440 100" version="1.1" xmlns="http://www.w3.org/2000/svg" xmlns:xlink="http://www.w3.org/1999/xlink" xml:space="preserve" style="fill-rule:evenodd;clip-rule:evenodd;stroke-linejoin:round;stroke-miterlimit:1.41421;"><g id="Layer1"><path d="M87.7382,32.9136c0,3.817 0,9.964 0.049,10.706c0.149,2.429 0.149,3.123 1.686,3.866c1.338,0.644 3.47,0.743 4.362,0.743c2.677,0 6.988,-1.437 6.988,-7.038c0,-2.974 -0.99,-7.286 -4.807,-9.913c-1.686,-1.14 -2.925,-1.289 -4.114,-1.437c-0.645,-0.1 -3.122,-0.1 -3.867,-0.1c-0.197,0 -0.297,0.1 -0.297,0.347l0,2.826ZM87.7382,27.6586c0,0.346 0.1,0.446 0.347,0.545c0.298,0.05 1.19,0.198 3.022,0.198c2.777,0 3.472,-0.099 4.513,-1.288c1.04,-1.189 1.784,-2.974 1.784,-5.006c0,-4.115 -1.833,-8.527 -6.691,-8.527c-0.546,0 -1.587,0.051 -2.38,0.249c-0.446,0.099 -0.595,0.249 -0.595,0.544l0,13.285ZM83.7722,26.5676c0,-7.732 0,-9.12 -0.098,-10.706c-0.101,-1.684 -0.497,-2.479 -2.132,-2.825c-0.396,-0.1 -1.238,-0.149 -1.685,-0.149c-0.199,0 -0.397,-0.099 -0.397,-0.297c0,-0.298 0.248,-0.397 0.794,-0.397c2.23,0 5.353,0.149 5.601,0.149c1.188,0 3.122,-0.149 5.402,-0.149c8.129,0 9.914,4.956 9.914,7.436c0,4.064 -2.33,6.493 -4.659,8.921c3.667,1.14 8.574,4.66 8.574,10.459c0,5.304 -4.162,10.805 -12.639,10.805c-0.545,0 -2.131,-0.098 -3.569,-0.149c-1.437,-0.098 -2.825,-0.148 -3.023,-0.148c-0.099,0 -0.943,0 -1.983,0.05c-0.992,0 -2.132,0.098 -2.874,0.098c-0.546,0 -0.795,-0.098 -0.795,-0.397c0,-0.147 0.101,-0.296 0.398,-0.296c0.445,0 1.041,-0.099 1.486,-0.199c0.991,-0.198 1.238,-1.288 1.437,-2.725c0.248,-2.082 0.248,-5.997 0.248,-10.757l0,-8.724Z" style="fill:#555;fill-rule:nonzero;"/><path d="M119.162,45.0073c-4.807,-4.312 -5.996,-9.964 -5.996,-14.672c0,-3.321 1.14,-9.119 5.55,-13.532c2.975,-2.974 7.485,-5.303 15.119,-5.303c1.982,0 4.759,0.149 7.187,0.594c1.883,0.347 3.47,0.644 5.056,0.744c0.545,0.049 0.646,0.248 0.646,0.544c0,0.397 -0.151,0.991 -0.25,2.776c-0.098,1.636 -0.098,4.363 -0.148,5.106c-0.049,0.743 -0.148,1.041 -0.446,1.041c-0.347,0 -0.396,-0.347 -0.396,-1.041c0,-1.933 -0.795,-3.965 -2.083,-5.056c-1.734,-1.486 -5.552,-2.826 -9.913,-2.826c-6.594,0 -9.665,1.934 -11.401,3.619c-3.618,3.471 -4.46,7.882 -4.46,12.937c0,9.468 7.285,18.142 17.893,18.142c3.718,0 6.642,-0.446 8.624,-2.478c1.041,-1.091 1.687,-3.272 1.835,-4.164c0.099,-0.545 0.199,-0.743 0.495,-0.743c0.25,0 0.347,0.346 0.347,0.743c0,0.347 -0.595,4.659 -1.09,6.345c-0.297,0.941 -0.398,1.04 -1.289,1.437c-1.982,0.793 -5.75,1.141 -8.922,1.141c-7.434,0 -12.441,-1.834 -16.358,-5.354" style="fill:#555;fill-rule:nonzero;"/><path d="M154.354,46.7915c0,-1.14 0.794,-2.726 2.728,-2.726c1.536,0 2.724,0.991 2.724,2.578c0,1.585 -1.089,2.875 -2.775,2.875c-1.883,0 -2.677,-1.488 -2.677,-2.727" style="fill:#555;fill-rule:nonzero;"/><path d="M200.748,35.2915c0,4.76 0,8.675 0.248,10.757c0.148,1.437 0.445,2.527 1.933,2.725c0.694,0.101 1.784,0.199 2.229,0.199c0.298,0 0.397,0.149 0.397,0.297c0,0.249 -0.247,0.397 -0.794,0.397c-2.726,0 -5.848,-0.148 -6.095,-0.148c-0.248,0 -3.372,0.148 -4.858,0.148c-0.544,0 -0.792,-0.099 -0.792,-0.397c0,-0.148 0.098,-0.297 0.396,-0.297c0.445,0 1.041,-0.098 1.486,-0.199c0.992,-0.198 1.239,-1.288 1.437,-2.725c0.249,-2.082 0.249,-5.997 0.249,-10.757l0,-20.966l-7.336,0.099c-3.073,0.05 -4.264,0.397 -5.057,1.585c-0.545,0.843 -0.693,1.19 -0.842,1.536c-0.148,0.398 -0.297,0.498 -0.496,0.498c-0.148,0 -0.248,-0.15 -0.248,-0.448c0,-0.495 0.993,-4.758 1.091,-5.155c0.1,-0.296 0.297,-0.94 0.495,-0.94c0.348,0 0.843,0.495 2.182,0.594c1.437,0.149 3.321,0.248 3.916,0.248l18.587,0c1.588,0 2.726,-0.099 3.519,-0.248c0.746,-0.099 1.191,-0.247 1.387,-0.247c0.249,0 0.249,0.297 0.249,0.593c0,1.488 -0.149,4.908 -0.149,5.453c0,0.447 -0.149,0.646 -0.345,0.646c-0.249,0 -0.348,-0.149 -0.396,-0.843l-0.049,-0.547c-0.15,-1.486 -1.341,-2.625 -6.1,-2.725l-6.244,-0.099l0,20.966Z" style="fill:#b50000;fill-rule:nonzero;"/><path d="M238.863,48.477c4.461,0 13.681,-2.578 13.681,-17.002c0,-11.896 -7.237,-18.29 -15.068,-18.29c-8.28,0 -14.476,5.452 -14.476,16.308c0,11.548 6.941,18.984 15.863,18.984M237.823,11.5c11.153,0 19.479,7.039 19.479,18.587c0,11.103 -7.83,20.274 -19.777,20.274c-13.582,0 -19.231,-10.558 -19.231,-19.48c0,-8.031 5.848,-19.381 19.529,-19.381" style="fill:#555;fill-rule:nonzero;"/><path d="M268.801,26.5679c0,-7.732 0,-9.12 -0.1,-10.706c-0.098,-1.685 -0.496,-2.48 -2.129,-2.826c-0.397,-0.099 -1.24,-0.149 -1.685,-0.149c-0.198,0 -0.398,-0.099 -0.398,-0.296c0,-0.298 0.248,-0.397 0.792,-0.397c1.141,0 2.479,0 3.569,0.05l2.035,0.099c0.346,0 10.21,0 11.348,-0.05c0.941,-0.049 1.735,-0.149 2.132,-0.248c0.247,-0.049 0.446,-0.248 0.697,-0.248c0.147,0 0.196,0.199 0.196,0.447c0,0.347 -0.251,0.941 -0.398,2.329c-0.049,0.495 -0.149,2.676 -0.248,3.272c-0.05,0.248 -0.148,0.545 -0.346,0.545c-0.298,0 -0.397,-0.248 -0.397,-0.645c0,-0.347 -0.048,-1.189 -0.297,-1.784c-0.347,-0.793 -0.843,-1.388 -3.518,-1.685c-0.845,-0.099 -6.247,-0.149 -6.792,-0.149c-0.198,0 -0.298,0.149 -0.298,0.496l0,13.679c0,0.348 0.051,0.498 0.298,0.498c0.644,0 6.741,0 7.881,-0.1c1.189,-0.099 1.884,-0.198 2.329,-0.695c0.349,-0.396 0.545,-0.644 0.745,-0.644c0.148,0 0.247,0.099 0.247,0.397c0,0.297 -0.247,1.141 -0.396,2.776c-0.1,0.991 -0.199,2.826 -0.199,3.172c0,0.396 0,0.941 -0.346,0.941c-0.249,0 -0.349,-0.197 -0.349,-0.446c0,-0.495 0,-0.99 -0.196,-1.635c-0.2,-0.694 -0.646,-1.537 -2.577,-1.735c-1.339,-0.148 -6.246,-0.248 -7.088,-0.248c-0.249,0 -0.349,0.15 -0.349,0.347l0,4.362c0,1.686 -0.048,7.436 0,8.477c0.15,3.42 0.894,4.065 5.751,4.065c1.288,0 3.469,0 4.757,-0.545c1.29,-0.546 1.886,-1.538 2.233,-3.57c0.098,-0.546 0.197,-0.744 0.446,-0.744c0.297,0 0.297,0.398 0.297,0.744c0,0.397 -0.396,3.767 -0.645,4.808c-0.347,1.288 -0.741,1.288 -2.678,1.288c-3.715,0 -6.443,-0.099 -8.377,-0.149c-1.931,-0.098 -3.122,-0.148 -3.863,-0.148c-0.104,0 -0.946,0 -1.984,0.05c-0.991,0 -2.133,0.098 -2.874,0.098c-0.547,0 -0.794,-0.098 -0.794,-0.397c0,-0.148 0.099,-0.297 0.397,-0.297c0.445,0 1.041,-0.098 1.486,-0.198c0.991,-0.198 1.24,-1.288 1.436,-2.726c0.249,-2.081 0.249,-5.997 0.249,-10.756l0,-8.724Z" style="fill:#555;fill-rule:nonzero;"/><path d="M300.026,26.5679c0,-7.732 0,-9.12 -0.102,-10.706c-0.097,-1.685 -0.494,-2.48 -2.13,-2.826c-0.395,-0.099 -1.238,-0.149 -1.683,-0.149c-0.2,0 -0.397,-0.099 -0.397,-0.296c0,-0.298 0.248,-0.397 0.792,-0.397c2.232,0 5.205,0.149 5.601,0.149c1.092,0 3.965,-0.149 6.245,-0.149c6.196,0 8.426,2.082 9.22,2.826c1.092,1.041 2.478,3.271 2.478,5.898c0,7.037 -5.153,11.797 -12.192,11.797c-0.247,0 -0.796,0 -1.043,-0.048c-0.249,0 -0.545,-0.101 -0.545,-0.348c0,-0.397 0.296,-0.447 1.341,-0.447c4.806,0 8.574,-3.52 8.574,-8.08c0,-1.635 -0.148,-4.956 -2.776,-7.633c-2.627,-2.677 -5.65,-2.479 -6.792,-2.479c-0.843,0 -1.683,0.099 -2.13,0.299c-0.298,0.099 -0.398,0.445 -0.398,0.942l0,20.371c0,4.759 0,8.675 0.248,10.756c0.15,1.438 0.445,2.528 1.933,2.726c0.693,0.1 1.786,0.198 2.232,0.198c0.297,0 0.397,0.149 0.397,0.297c0,0.249 -0.247,0.397 -0.792,0.397c-2.727,0 -5.85,-0.148 -6.099,-0.148c-0.148,0 -3.27,0.148 -4.758,0.148c-0.545,0 -0.794,-0.098 -0.794,-0.397c0,-0.148 0.1,-0.297 0.396,-0.297c0.445,0 1.043,-0.098 1.488,-0.198c0.991,-0.198 1.238,-1.288 1.436,-2.726c0.25,-2.081 0.25,-5.997 0.25,-10.756l0,-8.724Z" style="fill:#555;fill-rule:nonzero;"/><path d="M332.096,26.5679c0,-7.732 0,-9.12 -0.1,-10.706c-0.099,-1.685 -0.494,-2.48 -2.129,-2.826c-0.398,-0.099 -1.242,-0.149 -1.688,-0.149c-0.198,0 -0.396,-0.099 -0.396,-0.296c0,-0.298 0.247,-0.397 0.792,-0.397c1.143,0 2.48,0 3.569,0.05l2.033,0.049c0.99,0 11.055,0.05 12.192,0c0.942,-0.049 1.736,-0.049 2.182,-0.198c0.297,-0.099 0.496,-0.298 0.694,-0.298c0.199,0 0.295,0.199 0.295,0.447c0,0.347 -0.244,0.941 -0.394,2.329c-0.051,0.495 -0.148,2.676 -0.247,3.272c-0.051,0.248 -0.148,0.545 -0.397,0.545c-0.249,0 -0.348,-0.248 -0.348,-0.596c0,-0.396 -0.148,-1.238 -0.446,-1.882c-0.296,-0.645 -1.435,-1.538 -3.367,-1.587l-7.637,-0.148c-0.296,0 -0.447,0.148 -0.447,0.545l0,13.68c0,0.298 0.053,0.446 0.351,0.446l6.342,-0.048c0.844,0 1.539,0 2.231,-0.051c1.188,-0.099 1.835,-0.247 2.28,-0.892c0.198,-0.248 0.346,-0.496 0.545,-0.496c0.198,0 0.247,0.149 0.247,0.397c0,0.297 -0.247,1.141 -0.395,2.776c-0.099,0.991 -0.199,2.974 -0.199,3.321c0,0.445 0,0.942 -0.348,0.942c-0.246,0 -0.344,-0.199 -0.344,-0.447c-0.053,-0.495 -0.101,-1.188 -0.298,-1.784c-0.249,-0.694 -1.041,-1.586 -2.577,-1.785c-1.242,-0.149 -6.642,-0.149 -7.484,-0.149c-0.247,0 -0.351,0.101 -0.351,0.447l0,4.213c0,4.759 0,8.675 0.251,10.756c0.148,1.438 0.445,2.528 1.932,2.726c0.694,0.1 1.784,0.198 2.229,0.198c0.298,0 0.398,0.149 0.398,0.297c0,0.249 -0.247,0.397 -0.794,0.397c-2.724,0 -5.849,-0.148 -6.096,-0.148c-0.249,0 -3.369,0.148 -4.855,0.148c-0.549,0 -0.796,-0.098 -0.796,-0.397c0,-0.148 0.099,-0.297 0.398,-0.297c0.446,0 1.041,-0.098 1.486,-0.198c0.991,-0.198 1.24,-1.288 1.437,-2.726c0.249,-2.081 0.249,-5.997 0.249,-10.756l0,-8.724Z" style="fill:#555;fill-rule:nonzero;"/><path d="M362.43,26.5679c0,-7.732 0,-9.12 -0.102,-10.706c-0.096,-1.685 -0.494,-2.48 -2.127,-2.826c-0.398,-0.099 -1.24,-0.149 -1.685,-0.149c-0.201,0 -0.398,-0.099 -0.398,-0.296c0,-0.298 0.248,-0.397 0.792,-0.397c1.14,0 2.477,0 3.569,0.05l2.03,0.099c0.349,0 10.212,0 11.353,-0.05c0.941,-0.049 1.735,-0.149 2.131,-0.248c0.248,-0.049 0.446,-0.248 0.693,-0.248c0.15,0 0.199,0.199 0.199,0.447c0,0.347 -0.249,0.941 -0.397,2.329c-0.049,0.495 -0.148,2.676 -0.247,3.272c-0.051,0.248 -0.148,0.545 -0.348,0.545c-0.296,0 -0.396,-0.248 -0.396,-0.645c0,-0.347 -0.05,-1.189 -0.297,-1.784c-0.346,-0.793 -0.842,-1.388 -3.517,-1.685c-0.845,-0.099 -6.247,-0.149 -6.792,-0.149c-0.198,0 -0.298,0.149 -0.298,0.496l0,13.679c0,0.348 0.051,0.498 0.298,0.498c0.643,0 6.741,0 7.879,-0.1c1.19,-0.099 1.886,-0.198 2.331,-0.695c0.346,-0.396 0.545,-0.644 0.743,-0.644c0.149,0 0.249,0.099 0.249,0.397c0,0.297 -0.249,1.141 -0.397,2.776c-0.099,0.991 -0.199,2.826 -0.199,3.172c0,0.396 0,0.941 -0.345,0.941c-0.249,0 -0.349,-0.197 -0.349,-0.446c0,-0.495 0,-0.99 -0.196,-1.635c-0.2,-0.694 -0.647,-1.537 -2.578,-1.735c-1.338,-0.148 -6.245,-0.248 -7.087,-0.248c-0.249,0 -0.349,0.15 -0.349,0.347l0,4.362c0,1.686 -0.049,7.436 0,8.477c0.148,3.42 0.893,4.065 5.749,4.065c1.29,0 3.471,0 4.759,-0.545c1.29,-0.546 1.883,-1.538 2.231,-3.57c0.097,-0.546 0.197,-0.744 0.448,-0.744c0.296,0 0.296,0.398 0.296,0.744c0,0.397 -0.396,3.767 -0.647,4.808c-0.346,1.288 -0.743,1.288 -2.675,1.288c-3.718,0 -6.445,-0.099 -8.377,-0.149c-1.931,-0.098 -3.125,-0.148 -3.868,-0.148c-0.099,0 -0.941,0 -1.98,0.05c-0.993,0 -2.132,0.098 -2.875,0.098c-0.545,0 -0.792,-0.098 -0.792,-0.397c0,-0.148 0.099,-0.297 0.394,-0.297c0.446,0 1.043,-0.098 1.489,-0.198c0.99,-0.198 1.24,-1.288 1.436,-2.726c0.249,-2.081 0.249,-5.997 0.249,-10.756l0,-8.724Z" style="fill:#555;fill-rule:nonzero;"/><path d="M397.621,30.8813c0,0.247 0.098,0.445 0.347,0.593c0.743,0.447 3.023,0.794 5.206,0.794c1.188,0 2.576,-0.148 3.716,-0.942c1.737,-1.189 3.025,-3.866 3.025,-7.632c0,-6.197 -3.274,-9.915 -8.578,-9.915c-1.487,0 -2.824,0.149 -3.319,0.299c-0.249,0.099 -0.397,0.295 -0.397,0.594l0,16.209ZM393.654,26.5683c0,-7.732 0,-9.121 -0.098,-10.707c-0.098,-1.684 -0.495,-2.479 -2.131,-2.825c-0.397,-0.099 -1.24,-0.149 -1.685,-0.149c-0.198,0 -0.396,-0.099 -0.396,-0.297c0,-0.297 0.249,-0.396 0.791,-0.396c2.231,0 5.354,0.148 5.603,0.148c0.545,0 4.312,-0.148 5.848,-0.148c3.123,0 6.443,0.297 9.07,2.179c1.239,0.893 3.42,3.323 3.42,6.741c0,3.669 -1.535,7.339 -5.996,11.452c4.064,5.204 7.432,9.615 10.31,12.688c2.676,2.826 4.809,3.372 6.048,3.569c0.942,0.149 1.634,0.149 1.932,0.149c0.247,0 0.445,0.149 0.445,0.297c0,0.299 -0.298,0.397 -1.188,0.397l-3.522,0c-2.774,0 -4.013,-0.247 -5.301,-0.942c-2.132,-1.139 -3.866,-3.568 -6.693,-7.286c-2.082,-2.726 -4.412,-6.047 -5.402,-7.336c-0.196,-0.198 -0.347,-0.297 -0.645,-0.297l-6.096,-0.099c-0.249,0 -0.347,0.149 -0.347,0.396l0,1.189c0,4.76 0,8.675 0.249,10.757c0.148,1.437 0.446,2.527 1.933,2.726c0.692,0.1 1.783,0.198 2.231,0.198c0.297,0 0.397,0.149 0.397,0.297c0,0.249 -0.249,0.397 -0.794,0.397c-2.728,0 -5.85,-0.148 -6.097,-0.148c-0.051,0 -3.174,0.148 -4.66,0.148c-0.544,0 -0.793,-0.098 -0.793,-0.397c0,-0.148 0.098,-0.297 0.396,-0.297c0.446,0 1.041,-0.098 1.487,-0.198c0.992,-0.199 1.239,-1.289 1.437,-2.726c0.247,-2.082 0.247,-5.997 0.247,-10.757l0,-8.723Z" style="fill:#555;fill-rule:nonzero;"/><path d="M20.4926,86.7695c-2.246,0 -3.662,-0.696 -4.169,-0.989c-0.321,-0.588 -0.668,-2.485 -0.721,-3.742c0.133,-0.186 0.535,-0.24 0.641,-0.081c0.401,1.362 1.497,3.984 4.597,3.984c2.244,0 3.339,-1.471 3.339,-3.074c0,-1.177 -0.239,-2.485 -2.191,-3.741l-2.538,-1.657c-1.337,-0.883 -2.886,-2.406 -2.886,-4.596c0,-2.539 1.976,-4.597 5.452,-4.597c0.827,0 1.789,0.161 2.485,0.348c0.347,0.106 0.721,0.159 0.935,0.159c0.24,0.641 0.48,2.138 0.48,3.261c-0.106,0.159 -0.534,0.24 -0.667,0.08c-0.347,-1.282 -1.07,-3.02 -3.635,-3.02c-2.618,0 -3.18,1.738 -3.18,2.967c0,1.549 1.283,2.672 2.271,3.287l2.138,1.335c1.684,1.044 3.341,2.594 3.341,5.131c0,2.94 -2.218,4.945 -5.692,4.945" style="fill:#555;fill-rule:nonzero;"/><path d="M49.1845,78.2705c0,-4.409 -1.95,-9.166 -7.055,-9.166c-2.779,0 -6.387,1.897 -6.387,7.75c0,3.955 1.924,9.087 7.189,9.087c3.208,0 6.253,-2.407 6.253,-7.671M33.0705,77.7105c0,-5.346 4.01,-9.434 9.514,-9.434c6.173,0 9.272,4.463 9.272,9.166c0,5.399 -4.114,9.327 -9.272,9.327c-5.932,0 -9.514,-4.249 -9.514,-9.059" style="fill:#555;fill-rule:nonzero;"/><path d="M62.9614,76.2397c0,0.722 0.081,0.722 0.882,0.722l1.817,0c1.096,0 1.951,-0.054 2.271,-0.16c0.294,-0.108 0.509,-0.241 0.67,-0.936l0.239,-1.069c0.133,-0.16 0.589,-0.16 0.695,0c0,0.641 -0.106,1.711 -0.106,2.699c0,0.962 0.106,1.977 0.106,2.592c-0.106,0.161 -0.508,0.161 -0.695,0l-0.267,-1.042c-0.133,-0.48 -0.348,-0.855 -0.855,-1.015c-0.374,-0.107 -1.042,-0.134 -2.058,-0.134l-1.817,0c-0.801,0 -0.882,0.027 -0.882,0.721l0,3.716c0,2.804 0.054,3.207 1.63,3.339l0.91,0.08c0.159,0.108 0.107,0.589 -0.055,0.668c-1.576,-0.053 -2.485,-0.079 -3.553,-0.079c-1.177,0 -2.085,0.026 -3.34,0.079c-0.162,-0.079 -0.215,-0.507 -0.055,-0.668l0.669,-0.08c1.549,-0.186 1.603,-0.535 1.603,-3.339l0,-9.62c0,-2.806 -0.054,-3.182 -1.603,-3.368l-0.427,-0.054c-0.161,-0.107 -0.108,-0.587 0.053,-0.667c1.122,0.053 2.031,0.08 3.1,0.08l4.916,0c1.711,0 3.261,0 3.608,-0.08c0,1.228 0.026,2.511 0.08,3.528c-0.08,0.158 -0.454,0.238 -0.641,0.078c-0.214,-1.202 -0.536,-2.191 -1.871,-2.538c-0.588,-0.161 -1.47,-0.161 -2.591,-0.161l-1.631,0c-0.802,0 -0.802,0.055 -0.802,1.069l0,5.639Z" style="fill:#555;fill-rule:nonzero;"/><path d="M85.8286,82.334c0,2.804 0.053,3.207 1.603,3.339l0.855,0.08c0.16,0.107 0.106,0.588 -0.052,0.667c-1.524,-0.052 -2.433,-0.079 -3.503,-0.079c-1.069,0 -2.003,0.027 -3.714,0.079c-0.159,-0.079 -0.213,-0.533 0,-0.667l0.963,-0.08c1.523,-0.132 1.657,-0.535 1.657,-3.339l0,-11.947c0,-0.827 0,-0.855 -0.803,-0.855l-1.468,0c-1.15,0 -2.621,0.054 -3.288,0.668c-0.642,0.59 -0.909,1.176 -1.203,1.845c-0.212,0.159 -0.588,0.026 -0.695,-0.188c0.427,-1.201 0.829,-2.912 1.017,-3.981c0.079,-0.054 0.428,-0.081 0.506,0c0.161,0.855 1.042,0.829 2.273,0.829l10.822,0c1.444,0 1.684,-0.054 2.085,-0.749c0.133,-0.054 0.427,-0.028 0.481,0.08c-0.295,1.096 -0.481,3.261 -0.401,4.062c-0.109,0.213 -0.562,0.213 -0.695,0.054c-0.081,-0.668 -0.268,-1.658 -0.669,-1.952c-0.612,-0.454 -1.63,-0.668 -3.098,-0.668l-1.898,0c-0.802,0 -0.775,0.028 -0.775,0.909l0,11.893Z" style="fill:#555;fill-rule:nonzero;"/><path d="M97.9765,69.2666c-0.16,-0.162 -0.134,-0.536 0.08,-0.642c0.722,0.053 1.924,0.08 2.754,0.08c0.747,0 2.108,-0.027 3.044,-0.08c0.241,0.08 0.214,0.454 0.055,0.642l-0.615,0.052c-0.561,0.054 -0.881,0.213 -0.881,0.454c0,0.321 0.56,1.683 1.388,3.581c1.497,3.34 3.073,6.681 4.623,9.966c0.642,-1.334 1.364,-2.831 2.058,-4.326c0.24,-0.509 0.428,-0.963 0.428,-1.097c0,-0.134 -0.08,-0.374 -0.214,-0.694c-0.936,-2.139 -1.925,-4.277 -2.939,-6.413c-0.401,-0.829 -0.803,-1.39 -1.711,-1.471l-0.641,-0.052c-0.187,-0.214 -0.16,-0.536 0.052,-0.642c0.777,0.053 1.791,0.08 2.862,0.08c1.335,0 2.324,-0.027 2.937,-0.08c0.188,0.08 0.215,0.428 0.054,0.642l-0.694,0.052c-1.042,0.081 -1.069,0.268 -0.562,1.471c0.562,1.308 1.31,2.992 2.058,4.648c0.508,-1.041 0.989,-2.057 1.577,-3.5c0.962,-2.271 0.829,-2.565 -0.026,-2.619l-0.802,-0.052c-0.187,-0.268 -0.134,-0.562 0.052,-0.642c0.723,0.053 1.524,0.08 2.512,0.08c0.883,0 1.952,-0.027 2.567,-0.08c0.186,0.08 0.213,0.428 0.053,0.642l-0.775,0.052c-1.123,0.081 -1.603,1.282 -2.192,2.378c-0.56,0.99 -1.683,3.314 -2.083,4.249c-0.134,0.269 -0.241,0.535 -0.241,0.641c0,0.107 0.053,0.321 0.185,0.641c0.91,2.06 1.845,4.062 2.728,6.092c0.829,-1.868 1.629,-3.739 2.404,-5.637c0.535,-1.283 1.951,-4.837 2.138,-5.318c0.347,-0.962 0.802,-2.11 0.802,-2.431c0,-0.374 -0.321,-0.588 -0.881,-0.615l-0.777,-0.052c-0.213,-0.242 -0.187,-0.536 0.027,-0.642c1.016,0.053 1.739,0.08 2.566,0.08c1.016,0 1.791,-0.027 2.486,-0.08c0.214,0.08 0.24,0.428 0.052,0.642l-0.507,0.052c-1.336,0.133 -1.576,0.936 -3.179,4.651l-1.952,4.515c-1.176,2.726 -2.245,5.345 -3.34,8.204c-0.081,0.054 -0.187,0.081 -0.321,0.081c-0.134,0 -0.267,-0.027 -0.373,-0.081c-0.856,-2.379 -2.406,-5.718 -3.234,-7.589c-0.962,1.95 -2.565,5.371 -3.341,7.589c-0.079,0.054 -0.187,0.081 -0.321,0.081c-0.133,0 -0.266,-0.027 -0.401,-0.081c-0.453,-1.123 -1.496,-3.526 -1.843,-4.302c-1.711,-3.714 -3.367,-7.429 -5.104,-11.143c-0.508,-1.097 -0.828,-1.819 -1.951,-1.925l-0.641,-0.052Z" style="fill:#555;fill-rule:nonzero;"/><path d="M131.555,77.7622c-0.214,0.616 -0.187,0.642 0.561,0.642l3.288,0c0.775,0 0.828,-0.106 0.588,-0.828l-1.445,-4.356c-0.213,-0.641 -0.453,-1.363 -0.614,-1.684l-0.054,0c-0.08,0.133 -0.345,0.775 -0.64,1.578l-1.684,4.648ZM136.847,80.1402c-0.188,-0.587 -0.295,-0.668 -1.097,-0.668l-4.034,0c-0.669,0 -0.829,0.081 -1.016,0.642l-0.935,2.806c-0.4,1.204 -0.589,1.925 -0.589,2.218c0,0.32 0.133,0.482 0.775,0.535l0.881,0.08c0.188,0.134 0.188,0.561 -0.051,0.667c-0.696,-0.053 -1.524,-0.053 -2.78,-0.079c-0.881,0 -1.843,0.053 -2.566,0.079c-0.159,-0.106 -0.213,-0.533 -0.053,-0.667l0.882,-0.08c0.643,-0.053 1.229,-0.348 1.604,-1.309c0.479,-1.229 1.228,-2.968 2.351,-5.96l2.725,-7.214c0.375,-0.962 0.535,-1.471 0.456,-1.898c0.64,-0.188 1.095,-0.668 1.388,-1.016c0.162,0 0.348,0.053 0.401,0.241c0.346,1.176 0.775,2.405 1.176,3.58l3.661,10.744c0.776,2.297 1.122,2.699 2.272,2.832l0.721,0.08c0.186,0.134 0.135,0.561 0,0.667c-1.096,-0.053 -2.031,-0.079 -3.234,-0.079c-1.283,0 -2.297,0.053 -3.073,0.079c-0.213,-0.106 -0.241,-0.533 -0.053,-0.667l0.775,-0.08c0.561,-0.053 0.935,-0.215 0.935,-0.48c0,-0.295 -0.133,-0.777 -0.346,-1.418l-1.176,-3.635Z" style="fill:#555;fill-rule:nonzero;"/><path d="M152.494,76.5605c0,0.482 0,0.774 0.081,0.882c0.08,0.08 0.481,0.134 1.844,0.134c0.962,0 1.977,-0.107 2.752,-0.695c0.722,-0.561 1.337,-1.496 1.337,-3.314c0,-2.112 -1.311,-4.116 -4.276,-4.116c-1.657,0 -1.738,0.109 -1.738,0.856l0,6.253ZM150.304,72.7395c0,-2.539 -0.081,-2.994 -1.176,-3.127l-0.856,-0.107c-0.186,-0.132 -0.186,-0.561 0.028,-0.667c1.496,-0.134 3.34,-0.214 5.959,-0.214c1.656,0 3.233,0.133 4.462,0.8c1.282,0.669 2.217,1.872 2.217,3.742c0,2.539 -2.004,3.929 -3.339,4.462c-0.134,0.161 0,0.429 0.133,0.642c2.138,3.447 3.555,5.585 5.371,7.109c0.454,0.401 1.123,0.694 1.844,0.748c0.135,0.054 0.161,0.266 0.027,0.373c-0.24,0.081 -0.667,0.134 -1.174,0.134c-2.273,0 -3.635,-0.668 -5.534,-3.366c-0.694,-0.989 -1.791,-2.834 -2.618,-4.035c-0.4,-0.588 -0.828,-0.856 -1.897,-0.856c-1.202,0 -1.257,0.027 -1.257,0.589l0,3.367c0,2.805 0.055,3.125 1.604,3.339l0.56,0.08c0.162,0.134 0.108,0.589 -0.052,0.668c-1.204,-0.053 -2.112,-0.079 -3.179,-0.079c-1.123,0 -2.085,0.026 -3.341,0.079c-0.161,-0.079 -0.213,-0.479 -0.055,-0.668l0.669,-0.08c1.55,-0.186 1.604,-0.534 1.604,-3.339l0,-9.594Z" style="fill:#555;fill-rule:nonzero;"/><path d="M171.806,72.7134c0,-2.779 -0.054,-3.182 -1.631,-3.368l-0.429,-0.053c-0.158,-0.108 -0.106,-0.588 0.056,-0.668c1.149,0.053 2.057,0.08 3.152,0.08l5.024,0c1.71,0 3.287,0 3.607,-0.08c0.161,0.454 0.322,2.378 0.429,3.554c-0.107,0.16 -0.534,0.213 -0.667,0.053c-0.402,-1.256 -0.644,-2.191 -2.032,-2.539c-0.561,-0.132 -1.417,-0.161 -2.592,-0.161l-1.924,0c-0.802,0 -0.802,0.055 -0.802,1.07l0,5.344c0,0.748 0.08,0.748 0.882,0.748l1.55,0c1.121,0 1.95,-0.053 2.272,-0.159c0.32,-0.108 0.507,-0.268 0.64,-0.936l0.215,-1.095c0.132,-0.161 0.588,-0.161 0.694,0.026c0,0.642 -0.106,1.685 -0.106,2.699c0,0.963 0.106,1.978 0.106,2.565c-0.106,0.189 -0.562,0.189 -0.694,0.027l-0.241,-1.042c-0.107,-0.481 -0.294,-0.881 -0.829,-1.016c-0.374,-0.107 -1.015,-0.133 -2.057,-0.133l-1.55,0c-0.802,0 -0.882,0.026 -0.882,0.722l0,3.768c0,1.415 0.08,2.324 0.508,2.779c0.322,0.321 0.881,0.616 3.234,0.616c2.056,0 2.832,-0.109 3.42,-0.404c0.48,-0.266 1.203,-1.201 1.898,-2.59c0.187,-0.134 0.561,-0.054 0.667,0.187c-0.189,0.935 -0.855,2.992 -1.203,3.713c-2.404,-0.053 -4.782,-0.079 -7.161,-0.079l-2.406,0c-1.148,0 -2.057,0.026 -3.633,0.079c-0.161,-0.079 -0.215,-0.506 -0.053,-0.667l0.881,-0.081c1.522,-0.132 1.657,-0.534 1.657,-3.338l0,-9.621Z" style="fill:#555;fill-rule:nonzero;"/><path d="M202.63,72.7134c0,-2.779 -0.055,-3.182 -1.63,-3.368l-0.428,-0.053c-0.16,-0.108 -0.108,-0.588 0.054,-0.668c1.149,0.053 2.058,0.08 3.153,0.08l5.024,0c1.709,0 3.289,0 3.604,-0.08c0.162,0.454 0.325,2.378 0.43,3.554c-0.105,0.16 -0.533,0.213 -0.666,0.053c-0.403,-1.256 -0.643,-2.191 -2.031,-2.539c-0.564,-0.132 -1.418,-0.161 -2.592,-0.161l-1.924,0c-0.802,0 -0.802,0.055 -0.802,1.07l0,5.344c0,0.748 0.079,0.748 0.881,0.748l1.549,0c1.122,0 1.952,-0.053 2.272,-0.159c0.32,-0.108 0.508,-0.268 0.642,-0.936l0.215,-1.095c0.131,-0.161 0.587,-0.161 0.694,0.026c0,0.642 -0.107,1.685 -0.107,2.699c0,0.963 0.107,1.978 0.107,2.565c-0.107,0.189 -0.563,0.189 -0.694,0.027l-0.241,-1.042c-0.108,-0.481 -0.296,-0.881 -0.826,-1.016c-0.377,-0.107 -1.019,-0.133 -2.062,-0.133l-1.549,0c-0.802,0 -0.881,0.026 -0.881,0.722l0,3.768c0,1.415 0.079,2.324 0.506,2.779c0.323,0.321 0.883,0.616 3.232,0.616c2.059,0 2.835,-0.109 3.423,-0.404c0.481,-0.266 1.202,-1.201 1.899,-2.59c0.186,-0.134 0.561,-0.054 0.664,0.187c-0.187,0.935 -0.854,2.992 -1.199,3.713c-2.405,-0.053 -4.787,-0.079 -7.162,-0.079l-2.406,0c-1.149,0 -2.059,0.026 -3.634,0.079c-0.16,-0.079 -0.214,-0.506 -0.053,-0.667l0.883,-0.081c1.521,-0.132 1.655,-0.534 1.655,-3.338l0,-9.621Z" style="fill:#555;fill-rule:nonzero;"/><path d="M236.879,81.7983c0,0.802 0,3.982 0.079,4.678c-0.053,0.158 -0.213,0.293 -0.508,0.293c-0.318,-0.455 -1.093,-1.39 -3.418,-4.034l-6.201,-7.057c-0.721,-0.829 -2.539,-3.02 -3.098,-3.607l-0.054,0c-0.108,0.32 -0.134,0.936 -0.134,1.736l0,5.827c0,1.256 0.026,4.729 0.481,5.53c0.159,0.294 0.694,0.456 1.362,0.509l0.828,0.08c0.162,0.213 0.134,0.534 -0.051,0.667c-1.205,-0.053 -2.139,-0.079 -3.129,-0.079c-1.123,0 -1.845,0.026 -2.78,0.079c-0.186,-0.133 -0.21,-0.506 -0.053,-0.667l0.724,-0.08c0.613,-0.081 1.043,-0.241 1.176,-0.535c0.373,-0.963 0.346,-4.221 0.346,-5.504l0,-7.723c0,-0.748 -0.026,-1.31 -0.587,-1.925c-0.375,-0.374 -1.018,-0.562 -1.659,-0.641l-0.453,-0.053c-0.162,-0.161 -0.162,-0.561 0.053,-0.668c1.124,0.08 2.539,0.08 3.021,0.08c0.427,0 0.881,-0.027 1.227,-0.08c0.537,1.362 3.689,4.89 4.572,5.879l2.593,2.913c1.842,2.056 3.152,3.554 4.406,4.836l0.055,0c0.109,-0.133 0.109,-0.561 0.109,-1.121l0,-5.72c0,-1.257 -0.028,-4.73 -0.535,-5.531c-0.164,-0.241 -0.589,-0.401 -1.658,-0.535l-0.454,-0.053c-0.188,-0.161 -0.159,-0.588 0.052,-0.668c1.232,0.053 2.137,0.08 3.156,0.08c1.148,0 1.841,-0.027 2.752,-0.08c0.213,0.133 0.213,0.507 0.052,0.668l-0.375,0.053c-0.854,0.134 -1.388,0.348 -1.496,0.562c-0.454,0.962 -0.401,4.275 -0.401,5.504l0,6.387Z" style="fill:#555;fill-rule:nonzero;"/><path d="M261.588,83.6157c0,1.069 0.158,1.71 0.64,1.898c0.079,0.079 0.079,0.239 -0.027,0.32c-0.319,0 -0.801,0.108 -1.309,0.24c-1.416,0.375 -3.34,0.696 -4.785,0.696c-3.178,0 -6.091,-0.883 -8.147,-2.967c-1.605,-1.604 -2.46,-3.715 -2.46,-6.065c0,-2.272 0.749,-4.571 2.405,-6.335c1.79,-1.871 4.435,-3.126 8.471,-3.126c1.523,0 2.94,0.293 3.394,0.401c0.506,0.106 1.336,0.294 1.656,0.24c0,0.883 0.162,2.273 0.403,3.875c-0.083,0.215 -0.563,0.241 -0.723,0.08c-0.747,-2.886 -2.754,-3.795 -5.477,-3.795c-5.187,0 -7.456,3.688 -7.456,7.698c0,5.13 2.644,9.166 8.015,9.166c1.658,0 2.648,-0.349 2.942,-0.804c0.132,-0.186 0.265,-0.668 0.265,-1.522l0,-1.069c0,-2.245 -0.079,-2.406 -1.736,-2.591l-1.175,-0.135c-0.213,-0.107 -0.187,-0.587 0,-0.669c0.773,0.054 2.245,0.082 3.82,0.082c1.043,0 1.95,-0.028 2.833,-0.082c0.186,0.108 0.215,0.509 0.026,0.669l-0.427,0.053c-1.122,0.134 -1.148,0.882 -1.148,2.245l0,1.497Z" style="fill:#555;fill-rule:nonzero;"/><path d="M271.917,72.7656c0,-2.832 -0.055,-3.287 -1.632,-3.42l-0.664,-0.054c-0.162,-0.107 -0.109,-0.587 0.051,-0.667c1.336,0.053 2.245,0.08 3.367,0.08c1.069,0 1.979,-0.027 3.313,-0.08c0.162,0.08 0.214,0.56 0.054,0.667l-0.668,0.054c-1.577,0.133 -1.63,0.588 -1.63,3.42l0,9.514c0,2.831 0.053,3.207 1.63,3.393l0.668,0.08c0.16,0.108 0.108,0.589 -0.054,0.668c-1.334,-0.053 -2.244,-0.079 -3.313,-0.079c-1.122,0 -2.031,0.026 -3.367,0.079c-0.16,-0.079 -0.213,-0.507 -0.051,-0.668l0.664,-0.08c1.577,-0.186 1.632,-0.562 1.632,-3.393l0,-9.514Z" style="fill:#555;fill-rule:nonzero;"/><path d="M299.597,81.7983c0,0.802 0,3.982 0.079,4.678c-0.055,0.158 -0.213,0.293 -0.507,0.293c-0.321,-0.455 -1.094,-1.39 -3.42,-4.034l-6.2,-7.057c-0.723,-0.829 -2.539,-3.02 -3.1,-3.607l-0.053,0c-0.11,0.32 -0.136,0.936 -0.136,1.736l0,5.827c0,1.256 0.026,4.729 0.483,5.53c0.16,0.294 0.694,0.456 1.362,0.509l0.829,0.08c0.159,0.213 0.133,0.534 -0.053,0.667c-1.203,-0.053 -2.138,-0.079 -3.127,-0.079c-1.122,0 -1.845,0.026 -2.78,0.079c-0.187,-0.133 -0.213,-0.506 -0.053,-0.667l0.723,-0.08c0.612,-0.081 1.041,-0.241 1.175,-0.535c0.373,-0.963 0.346,-4.221 0.346,-5.504l0,-7.723c0,-0.748 -0.026,-1.31 -0.588,-1.925c-0.372,-0.374 -1.014,-0.562 -1.656,-0.641l-0.453,-0.053c-0.16,-0.161 -0.16,-0.561 0.053,-0.668c1.123,0.08 2.541,0.08 3.018,0.08c0.428,0 0.883,-0.027 1.23,-0.08c0.534,1.362 3.687,4.89 4.57,5.879l2.592,2.913c1.843,2.056 3.153,3.554 4.408,4.836l0.055,0c0.107,-0.133 0.107,-0.561 0.107,-1.121l0,-5.72c0,-1.257 -0.028,-4.73 -0.534,-5.531c-0.162,-0.241 -0.59,-0.401 -1.659,-0.535l-0.453,-0.053c-0.189,-0.161 -0.16,-0.588 0.054,-0.668c1.228,0.053 2.137,0.08 3.151,0.08c1.15,0 1.845,-0.027 2.755,-0.08c0.212,0.133 0.212,0.507 0.052,0.668l-0.374,0.053c-0.855,0.134 -1.39,0.348 -1.495,0.562c-0.456,0.962 -0.401,4.275 -0.401,5.504l0,6.387Z" style="fill:#555;fill-rule:nonzero;"/><path d="M310.406,72.7134c0,-2.779 -0.053,-3.182 -1.631,-3.368l-0.425,-0.053c-0.162,-0.108 -0.109,-0.588 0.053,-0.668c1.149,0.053 2.056,0.08 3.152,0.08l5.025,0c1.711,0 3.286,0 3.608,-0.08c0.158,0.454 0.321,2.378 0.428,3.554c-0.107,0.16 -0.537,0.213 -0.669,0.053c-0.4,-1.256 -0.642,-2.191 -2.03,-2.539c-0.562,-0.132 -1.418,-0.161 -2.595,-0.161l-1.924,0c-0.802,0 -0.802,0.055 -0.802,1.07l0,5.344c0,0.748 0.083,0.748 0.883,0.748l1.552,0c1.121,0 1.95,-0.053 2.268,-0.159c0.324,-0.108 0.512,-0.268 0.641,-0.936l0.215,-1.095c0.136,-0.161 0.59,-0.161 0.696,0.026c0,0.642 -0.106,1.685 -0.106,2.699c0,0.963 0.106,1.978 0.106,2.565c-0.106,0.189 -0.56,0.189 -0.696,0.027l-0.238,-1.042c-0.106,-0.481 -0.294,-0.881 -0.831,-1.016c-0.374,-0.107 -1.014,-0.133 -2.055,-0.133l-1.552,0c-0.8,0 -0.883,0.026 -0.883,0.722l0,3.768c0,1.415 0.083,2.324 0.509,2.779c0.322,0.321 0.883,0.616 3.236,0.616c2.055,0 2.831,-0.109 3.418,-0.404c0.482,-0.266 1.203,-1.201 1.899,-2.59c0.186,-0.134 0.56,-0.054 0.667,0.187c-0.187,0.935 -0.855,2.992 -1.201,3.713c-2.407,-0.053 -4.783,-0.079 -7.162,-0.079l-2.407,0c-1.149,0 -2.056,0.026 -3.634,0.079c-0.158,-0.079 -0.212,-0.506 -0.053,-0.667l0.881,-0.081c1.525,-0.132 1.657,-0.534 1.657,-3.338l0,-9.621Z" style="fill:#555;fill-rule:nonzero;"/><path d="M330.279,72.7134c0,-2.779 -0.053,-3.182 -1.631,-3.368l-0.427,-0.053c-0.16,-0.108 -0.107,-0.588 0.055,-0.668c1.149,0.053 2.058,0.08 3.15,0.08l5.025,0c1.711,0 3.288,0 3.608,-0.08c0.162,0.454 0.323,2.378 0.428,3.554c-0.105,0.16 -0.533,0.213 -0.667,0.053c-0.4,-1.256 -0.642,-2.191 -2.03,-2.539c-0.564,-0.132 -1.418,-0.161 -2.593,-0.161l-1.924,0c-0.802,0 -0.802,0.055 -0.802,1.07l0,5.344c0,0.748 0.079,0.748 0.879,0.748l1.554,0c1.121,0 1.95,-0.053 2.27,-0.159c0.32,-0.108 0.508,-0.268 0.642,-0.936l0.212,-1.095c0.134,-0.161 0.588,-0.161 0.697,0.026c0,0.642 -0.109,1.685 -0.109,2.699c0,0.963 0.109,1.978 0.109,2.565c-0.109,0.189 -0.563,0.189 -0.697,0.027l-0.238,-1.042c-0.108,-0.481 -0.296,-0.881 -0.829,-1.016c-0.374,-0.107 -1.016,-0.133 -2.057,-0.133l-1.554,0c-0.8,0 -0.879,0.026 -0.879,0.722l0,3.768c0,1.415 0.079,2.324 0.509,2.779c0.318,0.321 0.881,0.616 3.232,0.616c2.057,0 2.833,-0.109 3.421,-0.404c0.481,-0.266 1.2,-1.201 1.898,-2.59c0.185,-0.134 0.561,-0.054 0.667,0.187c-0.189,0.935 -0.855,2.992 -1.201,3.713c-2.407,-0.053 -4.785,-0.079 -7.162,-0.079l-2.409,0c-1.147,0 -2.054,0.026 -3.632,0.079c-0.16,-0.079 -0.214,-0.506 -0.055,-0.667l0.884,-0.081c1.522,-0.132 1.656,-0.534 1.656,-3.338l0,-9.621Z" style="fill:#555;fill-rule:nonzero;"/><path d="M352.343,76.5605c0,0.482 0,0.774 0.081,0.882c0.081,0.08 0.482,0.134 1.843,0.134c0.964,0 1.98,-0.107 2.754,-0.695c0.72,-0.561 1.335,-1.496 1.335,-3.314c0,-2.112 -1.309,-4.116 -4.276,-4.116c-1.656,0 -1.737,0.109 -1.737,0.856l0,6.253ZM350.155,72.7395c0,-2.539 -0.082,-2.994 -1.177,-3.127l-0.855,-0.107c-0.188,-0.132 -0.188,-0.561 0.027,-0.667c1.494,-0.134 3.339,-0.214 5.957,-0.214c1.657,0 3.236,0.133 4.464,0.8c1.283,0.669 2.218,1.872 2.218,3.742c0,2.539 -2.007,3.929 -3.341,4.462c-0.133,0.161 0,0.429 0.136,0.642c0.534,0.86175 1.023,1.64169 1.4845,2.35067c1.3845,2.12695 2.5215,3.61533 3.8835,4.75833c0.455,0.401 1.124,0.694 1.845,0.748c0.134,0.054 0.158,0.266 0.028,0.373c-0.241,0.081 -0.67,0.134 -1.176,0.134c-2.272,0 -3.635,-0.668 -5.535,-3.366c-0.694,-0.989 -1.79,-2.834 -2.618,-4.035c-0.399,-0.588 -0.828,-0.856 -1.895,-0.856c-1.205,0 -1.258,0.027 -1.258,0.589l0,3.367c0,2.805 0.053,3.125 1.606,3.339l0.559,0.08c0.16,0.134 0.106,0.589 -0.053,0.668c-1.203,-0.053 -2.112,-0.079 -3.178,-0.079c-1.122,0 -2.086,0.026 -3.342,0.079c-0.162,-0.079 -0.215,-0.479 -0.053,-0.668l0.666,-0.08c1.554,-0.186 1.607,-0.534 1.607,-3.339l0,-9.594Z" style="fill:#555;fill-rule:nonzero;"/><path d="M371.653,72.7656c0,-2.832 -0.053,-3.287 -1.63,-3.42l-0.669,-0.054c-0.157,-0.107 -0.102,-0.587 0.055,-0.667c1.337,0.053 2.244,0.08 3.366,0.08c1.068,0 1.979,-0.027 3.316,-0.08c0.159,0.08 0.213,0.56 0.053,0.667l-0.67,0.054c-1.576,0.133 -1.631,0.588 -1.631,3.42l0,9.514c0,2.831 0.055,3.207 1.631,3.393l0.67,0.08c0.16,0.108 0.106,0.589 -0.053,0.668c-1.337,-0.053 -2.248,-0.079 -3.316,-0.079c-1.122,0 -2.029,0.026 -3.366,0.079c-0.157,-0.079 -0.212,-0.507 -0.055,-0.668l0.669,-0.08c1.577,-0.186 1.63,-0.562 1.63,-3.393l0,-9.514Z" style="fill:#555;fill-rule:nonzero;"/><path d="M399.332,81.7983c0,0.802 0,3.982 0.079,4.678c-0.053,0.158 -0.212,0.293 -0.508,0.293c-0.318,-0.455 -1.093,-1.39 -3.418,-4.034l-6.201,-7.057c-0.721,-0.829 -2.539,-3.02 -3.098,-3.607l-0.054,0c-0.108,0.32 -0.134,0.936 -0.134,1.736l0,5.827c0,1.256 0.026,4.729 0.482,5.53c0.16,0.294 0.695,0.456 1.361,0.509l0.828,0.08c0.162,0.213 0.136,0.534 -0.053,0.667c-1.2,-0.053 -2.136,-0.079 -3.124,-0.079c-1.124,0 -1.847,0.026 -2.78,0.079c-0.189,-0.133 -0.215,-0.506 -0.055,-0.667l0.723,-0.08c0.613,-0.081 1.041,-0.241 1.177,-0.535c0.372,-0.963 0.347,-4.221 0.347,-5.504l0,-7.723c0,-0.748 -0.028,-1.31 -0.589,-1.925c-0.377,-0.374 -1.016,-0.562 -1.658,-0.641l-0.454,-0.053c-0.16,-0.161 -0.16,-0.561 0.053,-0.668c1.124,0.08 2.537,0.08 3.019,0.08c0.429,0 0.883,-0.027 1.229,-0.08c0.537,1.362 3.689,4.89 4.57,5.879l2.595,2.913c1.843,2.056 3.152,3.554 4.406,4.836l0.055,0c0.107,-0.133 0.107,-0.561 0.107,-1.121l0,-5.72c0,-1.257 -0.026,-4.73 -0.533,-5.531c-0.164,-0.241 -0.589,-0.401 -1.658,-0.535l-0.453,-0.053c-0.189,-0.161 -0.162,-0.588 0.052,-0.668c1.231,0.053 2.136,0.08 3.155,0.08c1.148,0 1.841,-0.027 2.752,-0.08c0.213,0.133 0.213,0.507 0.052,0.668l-0.375,0.053c-0.854,0.134 -1.388,0.348 -1.496,0.562c-0.453,0.962 -0.401,4.275 -0.401,5.504l0,6.387Z" style="fill:#555;fill-rule:nonzero;"/><path d="M424.041,83.6157c0,1.069 0.158,1.71 0.64,1.898c0.079,0.079 0.079,0.239 -0.027,0.32c-0.319,0 -0.801,0.108 -1.311,0.24c-1.414,0.375 -3.337,0.696 -4.783,0.696c-3.177,0 -6.091,-0.883 -8.147,-2.967c-1.605,-1.604 -2.46,-3.715 -2.46,-6.065c0,-2.272 0.749,-4.571 2.405,-6.335c1.79,-1.871 4.435,-3.126 8.471,-3.126c1.523,0 2.939,0.293 3.394,0.401c0.506,0.106 1.337,0.294 1.656,0.24c0,0.883 0.162,2.273 0.403,3.875c-0.083,0.215 -0.563,0.241 -0.722,0.08c-0.748,-2.886 -2.754,-3.795 -5.478,-3.795c-5.187,0 -7.456,3.688 -7.456,7.698c0,5.13 2.644,9.166 8.015,9.166c1.658,0 2.648,-0.349 2.942,-0.804c0.132,-0.186 0.266,-0.668 0.266,-1.522l0,-1.069c0,-2.245 -0.081,-2.406 -1.737,-2.591l-1.175,-0.135c-0.213,-0.107 -0.187,-0.587 0,-0.669c0.773,0.054 2.245,0.082 3.821,0.082c1.042,0 1.949,-0.028 2.832,-0.082c0.186,0.108 0.213,0.509 0.026,0.669l-0.427,0.053c-1.122,0.134 -1.148,0.882 -1.148,2.245l0,1.497Z" style="fill:#555;fill-rule:nonzero;"/><rect x="15.9138" y="11.5" width="17.5032" height="17.5" style="fill:#555;fill-rule:nonzero;"/><rect x="15.9138" y="32.911" width="17.4666" height="17.45" style="fill:#555;fill-rule:nonzero;"/><rect x="37.4822" y="32.8976" width="17.5178" height="17.4634" style="fill:#555;fill-rule:nonzero;"/><rect x="37.4968" y="11.5" width="17.5032" height="17.5" style="fill:#b50000;fill-rule:nonzero;"/><rect x="16.1315" y="58.3315" width="408.068" height="0.819953" style="fill:#b50000;fill-rule:nonzero;"/></g></svg>