<?xml version="1.0" standalone="no"?><!DOCTYPE svg PUBLIC "-//W3C//DTD SVG 1.1//EN" "http://www.w3.org/Graphics/SVG/1.1/DTD/svg11.dtd"><svg width="100%" height="100%" viewBox="0 0 100 50" version="1.1" xmlns="http://www.w3.org/2000/svg" xmlns:xlink="http://www.w3.org/1999/xlink" xml:space="preserve" style="fill-rule:evenodd;clip-rule:evenodd;stroke-linejoin:round;stroke-miterlimit:1.41421;"><g transform="matrix(1.85301,0,0,2.94463,-2.67599,-29.713)"><path d="M8.057,21.443c0,0.856 -0.166,1.465 -0.5,1.825c-0.433,0.46 -1.239,0.69 -2.42,0.69c-0.55,0 -1.032,-0.081 -1.447,-0.243c-0.415,-0.163 -0.717,-0.424 -0.906,-0.785c-0.135,-0.243 -0.223,-0.504 -0.263,-0.784c-0.041,-0.279 -0.061,-0.617 -0.061,-1.014c0,-0.18 0,-0.315 0,-0.405l0,-2.759c0,-0.324 0.002,-0.642 0.006,-0.953c0.005,-0.311 0.034,-0.57 0.088,-0.777c0.127,-0.55 0.417,-0.96 0.872,-1.231c0.456,-0.27 1.039,-0.405 1.751,-0.405c0.911,0 1.618,0.207 2.123,0.622c0.505,0.414 0.757,1.032 0.757,1.852l0,0.96l-2.271,0l0,-0.838c0,-0.415 -0.039,-0.719 -0.115,-0.913c-0.077,-0.194 -0.219,-0.291 -0.426,-0.291c-0.162,0 -0.264,0.081 -0.304,0.244c-0.041,0.162 -0.061,0.432 -0.061,0.811l0,4.786c0,0.469 0.131,0.703 0.392,0.703c0.207,0 0.361,-0.097 0.46,-0.29c0.099,-0.194 0.148,-0.458 0.148,-0.791l0,-1.109l-0.635,0l0,-1.433l2.812,0l0,2.528Z" style="fill:#fff;fill-rule:nonzero;"/><path d="M16.345,23.917l-2.014,0l0,-5.543c0,-0.289 -0.023,-0.503 -0.068,-0.642c-0.045,-0.14 -0.135,-0.21 -0.27,-0.21c-0.18,0 -0.284,0.095 -0.311,0.284c-0.027,0.189 -0.041,0.41 -0.041,0.663l0,5.448l-2.028,0l0,-5.421c0,-0.352 -0.018,-0.602 -0.054,-0.751c-0.036,-0.149 -0.131,-0.223 -0.284,-0.223c-0.234,0 -0.351,0.207 -0.351,0.622l0,5.773l-2.028,0l0,-7.625l2.028,0l0,0.716c0.153,-0.27 0.335,-0.457 0.547,-0.561c0.212,-0.103 0.476,-0.155 0.791,-0.155c0.595,0 1.041,0.239 1.339,0.716c0.153,-0.261 0.335,-0.446 0.547,-0.554c0.212,-0.108 0.471,-0.162 0.778,-0.162c0.306,0 0.556,0.038 0.75,0.115c0.194,0.076 0.349,0.223 0.467,0.439c0.081,0.153 0.135,0.325 0.162,0.514c0.027,0.189 0.04,0.568 0.04,1.136l0,5.421Z" style="fill:#fff;fill-rule:nonzero;"/><path d="M22.132,16.468l-1.419,0l0,7.449l-2.421,0l0,-7.449l-1.446,0l0,-1.853l5.286,0l0,1.853Z" style="fill:#fff;fill-rule:nonzero;"/><path d="M28.352,21.186c0,0.64 -0.005,1.014 -0.014,1.122c-0.045,0.496 -0.187,0.866 -0.426,1.109c-0.239,0.244 -0.547,0.401 -0.926,0.473c-0.252,0.045 -0.653,0.068 -1.203,0.068l-3.042,0l0,-9.302l1.811,0c0.974,0 1.67,0.029 2.089,0.088c0.42,0.058 0.778,0.223 1.075,0.493c0.289,0.244 0.474,0.55 0.555,0.92c0.054,0.243 0.081,0.662 0.081,1.257l0,3.772ZM25.918,21.024l0,-4.07c0,-0.315 -0.056,-0.511 -0.169,-0.588c-0.113,-0.077 -0.309,-0.115 -0.588,-0.115l0,6.098c0.424,0 0.662,-0.14 0.717,-0.419c0.027,-0.144 0.04,-0.446 0.04,-0.906Z" style="fill:#fff;fill-rule:nonzero;"/><path d="M39.173,18.281l-0.672,5.636l-2.007,0l-0.762,-5.636l1.393,0c0.087,0.453 0.165,1.022 0.233,1.708c0.069,0.685 0.103,1.43 0.103,2.232c0,-0.781 0.034,-1.491 0.102,-2.13c0.068,-0.639 0.138,-1.242 0.209,-1.81l1.401,0Z" style="fill:#fff;fill-rule:nonzero;"/><rect x="39.509" y="22.77" width="1.065" height="1.147" style="fill:#fff;fill-rule:nonzero;"/><path d="M48.202,22.14c0,0.071 0,0.122 0,0.155c0,0.328 -0.003,0.519 -0.009,0.574c-0.005,0.054 -0.027,0.144 -0.065,0.27c-0.163,0.59 -0.627,0.885 -1.393,0.885c-0.581,0 -0.994,-0.169 -1.239,-0.508c-0.119,-0.153 -0.199,-0.34 -0.24,-0.561c-0.041,-0.221 -0.061,-0.504 -0.061,-0.848l0,-0.139l1.253,0l0,0.802c0,0.257 0.088,0.385 0.263,0.385c0.153,0 0.229,-0.193 0.229,-0.581l0,-0.295l0,-1.114c0,-0.197 -0.017,-0.336 -0.049,-0.418c-0.033,-0.082 -0.101,-0.123 -0.205,-0.123c-0.088,0 -0.149,0.041 -0.185,0.123c-0.035,0.082 -0.053,0.207 -0.053,0.377l-1.253,0l0.049,-2.843l2.704,0l0,0.901l-1.549,0l0,0.959c0.093,-0.121 0.189,-0.211 0.287,-0.271c0.125,-0.076 0.273,-0.115 0.442,-0.115c0.404,0 0.688,0.132 0.852,0.394c0.148,0.24 0.222,0.633 0.222,1.179l0,0.812Z" style="fill:#fff;fill-rule:nonzero;"/><rect x="48.693" y="22.77" width="1.065" height="1.147" style="fill:#fff;fill-rule:nonzero;"/><path d="M53.216,22.074c0,0.355 -0.003,0.565 -0.009,0.631c-0.027,0.322 -0.125,0.595 -0.295,0.819c-0.251,0.333 -0.628,0.5 -1.13,0.5c-0.301,0 -0.546,-0.037 -0.738,-0.111c-0.191,-0.073 -0.357,-0.203 -0.499,-0.389c-0.142,-0.186 -0.23,-0.373 -0.263,-0.561c-0.032,-0.188 -0.049,-0.457 -0.049,-0.807l0,-1.975c0,-0.371 0.018,-0.67 0.054,-0.897c0.035,-0.226 0.11,-0.422 0.225,-0.585c0.115,-0.164 0.276,-0.293 0.483,-0.385c0.208,-0.093 0.44,-0.14 0.697,-0.14c0.295,0 0.555,0.056 0.782,0.168c0.227,0.112 0.397,0.266 0.512,0.463c0.109,0.169 0.175,0.348 0.197,0.537c0.022,0.188 0.033,0.468 0.033,0.839l0,1.893ZM51.954,22.508l0,-2.794c0,-0.065 0,-0.114 0,-0.147c0,-0.186 -0.012,-0.32 -0.037,-0.401c-0.025,-0.082 -0.086,-0.123 -0.184,-0.123c-0.088,0 -0.149,0.039 -0.185,0.118c-0.035,0.08 -0.053,0.193 -0.053,0.34l0,3.376c0.016,0.186 0.093,0.278 0.229,0.278c0.104,0 0.168,-0.042 0.193,-0.127c0.025,-0.084 0.037,-0.258 0.037,-0.52Z" style="fill:#fff;fill-rule:nonzero;"/></g></svg>